<?xml version="1.0" standalone="no"?>
<!DOCTYPE svg PUBLIC "-//W3C//DTD SVG 20010904//EN"
 "http://www.w3.org/TR/2001/REC-SVG-20010904/DTD/svg10.dtd">
<svg version="1.0" xmlns="http://www.w3.org/2000/svg"
 width="1200.000000pt" height="1200.000000pt" viewBox="0 0 1200.000000 1200.000000"
 preserveAspectRatio="xMidYMid meet">
<metadata>
Created by potrace 1.14, written by Peter Selinger 2001-2017
</metadata>
<g transform="translate(0.000000,1200.000000) scale(0.100000,-0.100000)"
fill="#000000" stroke="none">
<path d="M0 6000 l0 -6000 6000 0 6000 0 0 6000 0 6000 -6000 0 -6000 0 0
-6000z m6813 4838 c441 -359 1511 -1228 2378 -1933 866 -704 1594 -1296 1617
-1315 l41 -35 -48 -57 -49 -57 -1609 1307 c-884 719 -1954 1587 -2376 1930
l-767 623 -502 -408 c-277 -224 -1068 -866 -1758 -1427 -1236 -1005 -2465
-2002 -2485 -2016 -6 -4 -31 18 -57 50 l-47 57 702 571 c386 314 1294 1052
2017 1639 723 588 1495 1216 1715 1395 220 180 406 327 413 327 7 1 374 -292
815 -651z m570 -2102 c48 -18 74 -41 98 -88 16 -31 19 -60 19 -183 l0 -145
-1500 0 -1500 0 0 145 c0 157 8 192 53 233 57 53 0 51 1447 51 1109 0 1352 -2
1383 -13z m117 -1558 c0 -568 -4 -1038 -8 -1044 -22 -34 -37 -34 -1499 -34
-1445 0 -1449 0 -1471 20 l-22 21 0 1034 0 1035 1500 0 1500 0 0 -1032z
m-4446 -2250 c11 -43 23 -78 27 -78 4 0 10 12 14 28 3 15 13 51 21 80 15 51
16 52 55 52 l39 0 0 -200 0 -200 -35 0 -35 0 -1 118 -1 117 -16 -52 c-13 -47
-18 -53 -41 -53 -24 0 -29 6 -43 58 l-16 57 -1 -122 -1 -123 -35 0 -35 0 0
201 0 200 42 -3 42 -3 20 -77z m1086 42 l0 -40 -40 0 -40 0 0 40 0 40 40 0 40
0 0 -40z m1016 25 c24 -18 35 -19 32 -2 -2 7 9 13 25 15 l27 3 0 -69 c0 -69 0
-69 -27 -67 -20 1 -29 7 -33 25 -15 62 -115 66 -115 5 0 -27 7 -33 73 -65 88
-42 111 -69 112 -127 0 -84 -92 -139 -169 -100 -17 9 -31 11 -31 6 0 -5 -13
-9 -30 -9 l-30 0 0 65 0 65 30 0 c23 0 30 -5 30 -19 0 -24 45 -61 74 -61 29 0
66 27 66 48 0 33 -29 59 -88 80 -78 29 -107 61 -107 117 0 45 22 80 60 96 32
13 80 10 101 -6z m1024 -25 l0 -40 -40 0 -40 0 0 40 0 40 40 0 40 0 0 -40z
m676 -6 c-3 -26 -6 -62 -6 -80 0 -30 -3 -34 -25 -34 -30 0 -32 4 -38 93 l-5
67 41 0 40 0 -7 -46z m1085 8 c38 -43 39 -89 2 -133 -20 -24 -24 -34 -14 -37
58 -19 69 -101 22 -154 -29 -33 -30 -33 -135 -36 l-106 -4 0 202 0 202 101 -4
c99 -3 101 -3 130 -36z m269 -132 l0 -170 35 0 c32 0 35 -2 35 -30 l0 -30 -95
0 -95 0 0 30 c0 27 3 30 30 30 l30 0 0 140 0 140 -30 0 c-27 0 -30 3 -30 30
l0 30 60 0 60 0 0 -170z m-4689 22 c28 -31 29 -36 29 -142 l0 -110 -35 0 c-26
0 -35 4 -35 17 0 15 -1 15 -19 -1 -22 -20 -80 -31 -115 -22 -55 14 -82 77 -55
128 15 28 86 58 142 58 34 0 47 4 47 15 0 33 -59 43 -123 21 -34 -13 -38 -12
-47 4 -16 30 -12 37 28 54 24 10 57 15 96 13 52 -3 63 -7 87 -35z m382 32 c12
-4 13 -12 6 -33 -9 -25 -14 -27 -60 -27 -44 1 -54 -3 -75 -27 -19 -22 -24 -39
-24 -83 0 -53 0 -54 30 -54 27 0 30 -3 30 -30 l0 -30 -95 0 -95 0 0 30 c0 27
3 30 30 30 l30 0 0 85 0 85 -30 0 c-25 0 -30 4 -30 25 0 24 2 25 65 25 64 0
65 0 65 -27 l0 -27 16 22 c9 13 26 27 38 32 25 10 78 12 99 4z m619 -5 c34
-18 48 -70 48 -179 l0 -100 -35 0 -34 0 -3 106 c-3 117 -11 133 -61 120 -40
-10 -57 -53 -57 -146 l0 -80 -35 0 -35 0 0 140 0 140 35 0 c29 0 35 -4 35 -21
0 -20 1 -20 31 5 32 28 76 34 111 15z m1358 -5 c44 -18 46 -22 27 -49 -12 -16
-18 -16 -47 -7 -44 16 -92 15 -115 -1 -28 -21 -11 -34 62 -47 77 -13 110 -30
123 -66 34 -87 -111 -147 -227 -94 -46 21 -50 27 -30 53 11 16 16 17 56 2 54
-19 101 -19 126 -2 25 19 12 35 -33 43 -117 20 -152 42 -152 97 0 74 110 111
210 71z m648 -4 c18 -17 22 -18 22 -5 0 10 10 15 30 15 l30 0 0 -65 0 -65 -29
0 c-22 0 -30 6 -35 25 -14 56 -97 70 -131 22 -19 -28 -19 -87 0 -114 22 -31
77 -39 127 -19 38 15 42 14 54 -2 18 -23 14 -32 -26 -54 -79 -42 -180 -13
-217 62 -28 54 -28 82 -3 137 34 75 129 108 178 63z m712 4 c44 -18 46 -22 27
-49 -12 -16 -18 -16 -47 -7 -44 16 -92 15 -115 -1 -28 -21 -11 -34 62 -47 77
-13 110 -30 123 -66 34 -87 -111 -147 -227 -94 -46 21 -50 27 -30 53 11 16 16
17 56 2 54 -19 101 -19 126 -2 25 19 12 35 -33 43 -117 20 -152 42 -152 97 0
74 110 111 210 71z m1361 -7 c93 -61 91 -200 -3 -257 -43 -26 -113 -26 -156 0
-35 22 -72 88 -72 130 0 42 37 108 72 130 46 28 115 27 159 -3z m297 7 c12 -8
22 -10 22 -5 0 6 16 11 36 11 l35 0 -3 -165 -3 -165 -32 -32 c-27 -27 -41 -32
-90 -35 -44 -3 -67 1 -92 15 -41 22 -46 32 -28 55 11 17 15 17 49 2 72 -29
128 -9 128 46 0 29 -1 30 -22 15 -73 -52 -178 25 -178 129 0 104 105 181 178
129z m-4768 -104 l0 -110 35 0 c32 0 35 -2 35 -30 l0 -30 -95 0 -95 0 0 30 c0
27 3 30 30 30 l30 0 0 80 0 80 -30 0 c-27 0 -30 3 -30 30 l0 30 60 0 60 0 0
-110z m1270 7 c0 -67 4 -107 12 -115 19 -19 57 -14 83 13 23 22 25 32 25 115
l0 90 35 0 35 0 0 -140 0 -140 -35 0 c-30 0 -35 4 -35 23 -1 19 -2 20 -13 6
-30 -39 -96 -51 -134 -24 -31 21 -43 74 -43 183 l0 92 35 0 35 0 0 -103z m770
-7 l0 -110 35 0 c32 0 35 -2 35 -30 l0 -30 -95 0 -95 0 0 30 c0 27 3 30 30 30
l30 0 0 80 0 80 -30 0 c-27 0 -30 3 -30 30 l0 30 60 0 60 0 0 -110z m-4260
-721 c574 -466 2084 -1692 3565 -2896 286 -233 522 -423 525 -423 3 0 388 311
855 691 468 380 1407 1144 2089 1698 681 553 1367 1110 1524 1238 l285 231 43
-53 c24 -30 44 -58 44 -63 0 -5 -138 -121 -307 -259 -170 -137 -889 -722
-1599 -1299 -710 -577 -1661 -1349 -2113 -1716 l-821 -667 -453 368 c-1196
972 -3091 2511 -3697 3003 -371 302 -679 554 -684 562 -11 16 74 127 89 116 6
-4 300 -243 655 -531z"/>
<path d="M5372 7714 c-14 -10 -22 -25 -22 -46 0 -26 24 -55 160 -194 88 -90
160 -167 160 -172 0 -4 -74 -79 -165 -166 -138 -132 -165 -162 -165 -186 0
-36 24 -60 58 -59 21 0 72 44 236 204 l209 204 -199 206 c-109 114 -206 211
-215 216 -24 12 -31 12 -57 -7z"/>
<path d="M5837 6982 c-22 -24 -21 -55 1 -76 17 -15 59 -16 438 -14 l418 3 15
26 c13 24 13 29 -2 53 l-17 26 -419 0 c-392 0 -419 -1 -434 -18z"/>
<path d="M7780 4895 l0 -55 41 0 c59 0 79 14 79 55 0 41 -20 55 -79 55 l-41 0
0 -55z"/>
<path d="M7780 4725 l0 -57 56 4 c40 3 61 10 70 23 32 44 5 77 -70 83 l-56 4
0 -57z"/>
<path d="M3372 4730 c-56 -23 -27 -76 37 -66 39 6 71 32 71 58 0 15 -8 18 -42
17 -24 0 -53 -4 -66 -9z"/>
<path d="M8483 4830 c-28 -11 -43 -40 -43 -83 0 -45 26 -76 71 -83 53 -9 92
27 92 86 0 69 -55 106 -120 80z"/>
<path d="M8823 4828 c-12 -6 -27 -23 -33 -38 -29 -70 45 -145 111 -110 16 9
19 22 19 75 0 53 -3 66 -19 75 -24 12 -49 12 -78 -2z"/>
</g>
</svg>
